<svg viewBox="0 0 24 24" xmlns="http://www.w3.org/2000/svg" xmlns:xlink="http://www.w3.org/1999/xlink" width="24.000000" height="24.000000" fill="none">
  <metadata>
    <agcit_code>agcit_huawei_television_news</agcit_code>
  </metadata>
	<rect id="TV_tv_fill 1" width="24.000000" height="24.000000" x="0.000000" y="0.000000" />
	<rect id="矩形 3552" width="24.000000" height="24.000000" x="0.000000" y="0.000000" opacity="0" fill="rgb(0,0,0)" />
	<g id="组合 4153">
		<path id="矢量 97" d="M4.25001 3C3.65668 3 3.11334 3.14333 2.62001 3.43C2.12001 3.71667 1.72668 4.11 1.44001 4.61C1.15334 5.10333 1.01001 5.64667 1.01001 6.24L1.01001 15.74C1.01001 16.3333 1.15334 16.88 1.44001 17.38C1.72668 17.8733 2.12001 18.2667 2.62001 18.56C3.11334 18.86 3.65668 19.01 4.25001 19.01L19.75 19.01C20.3433 19.01 20.8867 18.86 21.38 18.56C21.88 18.2667 22.2733 17.8733 22.56 17.38C22.8467 16.88 22.99 16.3333 22.99 15.74L22.99 6.24C22.99 5.64667 22.8467 5.10333 22.56 4.61C22.2733 4.11 21.88 3.71667 21.38 3.43C20.8867 3.14333 20.3433 3 19.75 3L4.25001 3ZM5.69001 19.49C5.49668 19.5033 5.33334 19.5833 5.20001 19.73C5.06001 19.87 4.99001 20.0467 4.99001 20.26C4.99001 20.4667 5.06668 20.64 5.22001 20.78C5.37334 20.9267 5.55334 21 5.76001 21L18.29 21C18.5767 20.9867 18.7767 20.8533 18.89 20.6C19.0033 20.3533 18.9933 20.1067 18.86 19.86C18.7333 19.6133 18.5267 19.49 18.24 19.49L5.69001 19.49ZM11.21 7.56C11.4167 7.56 11.5933 7.63333 11.74 7.78C11.88 7.92 11.95 8.09333 11.95 8.3C11.95 8.51333 11.88 8.69 11.74 8.83C11.5933 8.97667 11.4167 9.05 11.21 9.05L9.46001 9.05L9.46001 14.33C9.46001 14.5233 9.38334 14.6933 9.23001 14.84C9.07668 14.9933 8.89668 15.07 8.69001 15.07C8.48334 15.07 8.30668 14.9933 8.16001 14.84C8.01334 14.6933 7.94001 14.5233 7.94001 14.33L7.94001 9.05L6.19001 9.05C5.98334 9.05 5.80668 8.97667 5.66001 8.83C5.52001 8.69 5.45001 8.51333 5.45001 8.3C5.45001 8.09333 5.52001 7.92 5.66001 7.78C5.80668 7.63333 5.98334 7.56 6.19001 7.56L11.21 7.56ZM18.36 7.61C18.5533 7.67 18.6933 7.79333 18.78 7.98C18.8667 8.16667 18.87 8.35333 18.79 8.54L18.79 8.57L16.37 14.64C16.3033 14.7867 16.2133 14.8933 16.1 14.96C15.9933 15.0333 15.8667 15.07 15.72 15.07C15.56 15.07 15.4233 15.0333 15.31 14.96C15.1967 14.8933 15.11 14.77 15.05 14.59L12.67 8.57C12.59 8.37667 12.5933 8.18333 12.68 7.99C12.7733 7.79667 12.9133 7.67 13.1 7.61C13.2933 7.53 13.4833 7.53 13.67 7.61C13.85 7.69 13.98 7.82667 14.06 8.02L15.74 12.26L17.4 8.04C17.48 7.83333 17.6167 7.69 17.81 7.61C18.0033 7.53 18.1867 7.53 18.36 7.61Z" fill="rgb(255,255,255)" fill-opacity="0.400000006" fill-rule="nonzero" />
	</g>
</svg>
