<svg viewBox="0 0 24 24" xmlns="http://www.w3.org/2000/svg" xmlns:xlink="http://www.w3.org/1999/xlink" width="24.000000" height="24.000000" fill="none">
  <metadata>
    <agcit_code>agcit_huawei_television_news</agcit_code>
  </metadata>
	<rect id="svg" width="24.000000" height="24.000000" x="0.000000" y="0.000000" />
	<rect id="rect" width="24.000000" height="24.000000" x="0.000000" y="0.000000" opacity="0" fill="rgb(0,0,0)" />
	<g id="g">
		<path id="path" d="M12.0001 1.75C11.1534 1.75 10.3701 1.96333 9.65006 2.39C8.93006 2.81 8.35673 3.38 7.93006 4.1C7.51006 4.82 7.30006 5.60667 7.30006 6.46C7.30006 7.30667 7.51006 8.09 7.93006 8.81C8.35673 9.53 8.93006 10.1 9.65006 10.52C10.3701 10.9467 11.1534 11.16 12.0001 11.16C12.8467 11.16 13.6301 10.9467 14.3501 10.52C15.0701 10.1 15.6434 9.53 16.0701 8.81C16.4901 8.09 16.7001 7.30667 16.7001 6.46C16.7001 5.60667 16.4901 4.82 16.0701 4.1C15.6434 3.38 15.0701 2.81 14.3501 2.39C13.6301 1.96333 12.8467 1.75 12.0001 1.75ZM11.1801 12.36C9.85339 12.36 8.54339 12.6933 7.25006 13.36C5.95006 14.02 4.88673 14.9233 4.06006 16.07C3.22673 17.21 2.81006 18.46 2.81006 19.82C2.81006 20.4933 3.05006 21.0667 3.53006 21.54C4.01006 22.0133 4.57673 22.25 5.23006 22.25L18.7401 22.25C19.4134 22.25 19.9867 22.0133 20.4601 21.54C20.9334 21.0667 21.1701 20.4933 21.1701 19.82C21.1701 18.46 20.7534 17.21 19.9201 16.07C19.0867 14.9233 18.0234 14.02 16.7301 13.36C15.4301 12.6933 14.1167 12.36 12.7901 12.36L11.1801 12.36Z" fill="rgb(255,255,255)" fill-opacity="0.400000006" fill-rule="nonzero" />
	</g>
</svg>
