<svg viewBox="0 0 24 24" xmlns="http://www.w3.org/2000/svg" xmlns:xlink="http://www.w3.org/1999/xlink" width="24.000000" height="24.000000" fill="none">
  <metadata>
    <agcit_code>agcit_huawei_television_news</agcit_code>
  </metadata>
	<rect id="TV_tv_fill 1" width="24.000000" height="24.000000" x="0.000000" y="0.000000" />
	<rect id="矩形 3552" width="24.000000" height="24.000000" x="0.000000" y="0.000000" opacity="0" fill="rgb(0,0,0)" />
	<g id="组合 4153">
		<path id="矢量 97" d="M4.24977 3C3.65643 3 3.1131 3.14333 2.61977 3.43C2.11977 3.71667 1.72643 4.11 1.43977 4.61C1.1531 5.10333 1.00977 5.64667 1.00977 6.24L1.00977 15.74C1.00977 16.3333 1.1531 16.88 1.43977 17.38C1.72643 17.8733 2.11977 18.2667 2.61977 18.56C3.1131 18.86 3.65643 19.01 4.24977 19.01L19.7498 19.01C20.3431 19.01 20.8864 18.86 21.3798 18.56C21.8798 18.2667 22.2731 17.8733 22.5598 17.38C22.8464 16.88 22.9898 16.3333 22.9898 15.74L22.9898 6.24C22.9898 5.64667 22.8464 5.10333 22.5598 4.61C22.2731 4.11 21.8798 3.71667 21.3798 3.43C20.8864 3.14333 20.3431 3 19.7498 3L4.24977 3ZM5.68977 19.49C5.49643 19.5033 5.3331 19.5833 5.19977 19.73C5.05977 19.87 4.98977 20.0467 4.98977 20.26C4.98977 20.4667 5.06643 20.64 5.21977 20.78C5.3731 20.9267 5.5531 21 5.75977 21L18.2898 21C18.5764 20.9867 18.7764 20.8533 18.8898 20.6C19.0031 20.3533 18.9931 20.1067 18.8598 19.86C18.7331 19.6133 18.5264 19.49 18.2398 19.49L5.68977 19.49ZM11.2098 7.56C11.4164 7.56 11.5931 7.63333 11.7398 7.78C11.8798 7.92 11.9498 8.09333 11.9498 8.3C11.9498 8.51333 11.8798 8.69 11.7398 8.83C11.5931 8.97667 11.4164 9.05 11.2098 9.05L9.45977 9.05L9.45977 14.33C9.45977 14.5233 9.3831 14.6933 9.22976 14.84C9.07643 14.9933 8.89643 15.07 8.68976 15.07C8.4831 15.07 8.30643 14.9933 8.15977 14.84C8.0131 14.6933 7.93977 14.5233 7.93977 14.33L7.93977 9.05L6.18977 9.05C5.9831 9.05 5.80643 8.97667 5.65977 8.83C5.51977 8.69 5.44977 8.51333 5.44977 8.3C5.44977 8.09333 5.51977 7.92 5.65977 7.78C5.80643 7.63333 5.9831 7.56 6.18977 7.56L11.2098 7.56ZM18.3598 7.61C18.5531 7.67 18.6931 7.79333 18.7798 7.98C18.8664 8.16667 18.8698 8.35333 18.7898 8.54L18.7898 8.57L16.3698 14.64C16.3031 14.7867 16.2131 14.8933 16.0998 14.96C15.9931 15.0333 15.8664 15.07 15.7198 15.07C15.5598 15.07 15.4231 15.0333 15.3098 14.96C15.1964 14.8933 15.1098 14.77 15.0498 14.59L12.6698 8.57C12.5898 8.37667 12.5931 8.18333 12.6798 7.99C12.7731 7.79667 12.9131 7.67 13.0998 7.61C13.2931 7.53 13.4831 7.53 13.6698 7.61C13.8498 7.69 13.9798 7.82667 14.0598 8.02L15.7398 12.26L17.3998 8.04C17.4798 7.83333 17.6164 7.69 17.8098 7.61C18.0031 7.53 18.1864 7.53 18.3598 7.61Z" fill="rgb(235,85,68)" fill-rule="nonzero" />
	</g>
</svg>
